<?xml version="1.0" encoding="utf-8"?>
<!-- Generator: Adobe Illustrator 26.1.0, SVG Export Plug-In . SVG Version: 6.00 Build 0)  -->
<svg version="1.1" id="Layer_1" xmlns="http://www.w3.org/2000/svg" xmlns:xlink="http://www.w3.org/1999/xlink" x="0px" y="0px"
	 viewBox="0 0 538 171.7" style="enable-background:new 0 0 538 171.7;" xml:space="preserve">
<g>
	<polygon style="fill:#010101;" points="233.7,75.3 226.1,90.9 235.1,90.9 233.8,75.3 	"/>
	<path style="fill:#010101;" d="M147.1,76c-2.5,0-4.6,1.8-4.6,6.9v14.9c0,5,2.1,6.9,4.6,6.9c2.9,0,3.8-2.3,3.8-5.2V81.2
		C150.8,78.2,150,76,147.1,76z"/>
	<path style="fill:#010101;" d="M114.6,76c-3.3,0-4.2,2.3-4.2,5.2v18.2c0,3,1,5.2,4.2,5.2c3.2,0,4.2-2.2,4.2-5.2V81.2
		C118.7,78.2,117.8,76,114.6,76z"/>
	<path style="fill:#010101;" d="M531.4,87L464.8,7.6l-5.3,33H21.9L8.8,132h435.9l-5.5,34.3L531.4,87z M50.8,112.4
		c-9,0-13.5-5.4-13.5-14.7v-3.3h8.7v4c0,4.2,1.8,5.7,4.8,5.7s4.8-1.5,4.8-5.9c0-4.8-2-7.9-8-13.1c-7.7-6.8-10.3-11.6-10.3-18.3
		c0-9.2,4.8-14.5,13.7-14.5c8.9,0,13.4,5.4,13.4,14.7v2.4h-8.7v-3c0-4.2-1.7-5.8-4.6-5.8c-2.9,0-4.7,1.6-4.7,5.6
		c0,4.3,2.1,7.3,8.1,12.5c7.7,6.8,10.2,11.5,10.2,18.8C64.6,107.1,59.8,112.4,50.8,112.4z M95.7,111.6h-8.9v-30c0-3.7-1-5.6-3.7-5.6
		c-2.5,0-4.5,1.8-4.5,6.9v28.8h-8.9V53.1h8.9V72c1.7-2.5,4.3-3.8,7.5-3.8c5.9,0,9.5,3.7,9.5,12.5V111.6z M127.6,98.6
		c0,8.9-4.7,13.9-13,13.9s-13-5-13-13.9V82c0-8.9,4.7-13.9,13-13.9s13,5,13,13.9V98.6z M159.7,100c0,8.8-3.8,12.5-9.7,12.5
		c-3.2,0-5.8-1.4-7.5-3.9v16.1h-8.9V69h7.7l0.2,5c1.5-3.7,4.7-5.9,8.5-5.9c5.9,0,9.7,3.7,9.7,12.5V100z M181.3,111.6h-18.7l9.7-55.1
		h39.5l-2.4,13.4h-20.7l-1.4,7.9h18.2l-2.3,13.1h-18.3L181.3,111.6z M236.9,111.6l-0.8-8.7h-15.9l-4.2,8.7h-17.4l29.2-55.1h19.8
		l8.9,55.1H236.9z M295.5,76.8c9.4,2.9,15.4,7.7,15.4,17c0,12.3-10.7,19.3-24.7,19.3c-9.6,0-21.6-3.2-28.4-10.8l10.1-9.4
		c4.4,4.1,10.3,8,17.6,8c3.5,0,6.2-1,6.2-3.6c0-4-6.3-4.5-13-6.6c-8.9-2.8-14.6-7.2-14.6-16.3c0-11.9,9.7-19.3,23.7-19.3
		c8.8,0,19.7,2.9,26.6,9.4l-10,9.3c-3.7-3.1-8.7-6.4-15.1-6.4c-3.5,0-5.8,1-5.8,3.5C283.4,74.6,288.9,74.8,295.5,76.8z M341.5,111.6
		h-18.7l7.2-41.7h-13.9l2.4-13.4h46.6l-2.4,13.4h-14L341.5,111.6z M401.9,111.6h-41.2l9.7-55.1h40.7l-2.4,13.4h-21.9l-1.3,7.4h18.4
		l-2.2,13.1h-18.5l-1.4,7.8h22.5L401.9,111.6z M439,111.6l-3.4-19.9h-5l-3.5,19.9h-18.8l9.6-55.1h25.9c10.9,0,20.9,4.1,20.9,16.1
		c0,7.6-3.9,13.8-11,17l5.5,21.9v0.2H439z"/>
	<path style="fill:#010101;" d="M440.8,69.2h-6.2l-1.8,9.8h7.5c3.7,0,6-2.2,6-5.3C446.3,70.4,444.2,69.2,440.8,69.2z"/>
</g>
</svg>
