<?xml version="1.0" encoding="utf-8"?>
<!-- Generator: Adobe Illustrator 26.1.0, SVG Export Plug-In . SVG Version: 6.00 Build 0)  -->
<svg version="1.1" id="Layer_1" xmlns="http://www.w3.org/2000/svg" xmlns:xlink="http://www.w3.org/1999/xlink" x="0px" y="0px"
	 viewBox="0 0 75.1 63.6" style="enable-background:new 0 0 75.1 63.6;" xml:space="preserve">
<g style="opacity:0.7;">
	<circle style="fill:#FFFFFF;" cx="62.5" cy="58.5" r="3.5"/>
	<circle style="fill:#FFFFFF;" cx="15.5" cy="58.5" r="3.5"/>
	<path style="fill:#FFFFFF;" d="M13.4,8.6l-1.8-7c-0.1-0.4-0.5-0.7-0.9-0.8L1.5,0.5c-0.5,0-1,0.4-1,1c0,0.6,0.4,1,1,1l8.5,0.3
		l10.4,41.3L12.8,52c-0.3,0.3-0.4,0.7-0.2,1.1c0.2,0.4,0.5,0.6,0.9,0.6h50.8c0.6,0,1-0.4,1-1s-0.4-1-1-1H15.8l6.3-6.6
		c0.2-0.2,0.3-0.6,0.2-0.9L22,42.8l46.6-2.3l5-24.6L13.4,8.6z M50.6,14.1l11.7,1.4c-0.2,1.4-0.4,2.8-0.6,4.2c0,0.3-0.4,0.8-0.6,0.8
		c-3.7,0.3-7.5,0.5-11.4,0.7c0.2-1.2,0.3-2.3,0.4-3.4C50.3,16.6,50.4,15.4,50.6,14.1z M49.6,21.4c-0.5,3.9-1,7.8-2.2,11.6
		c-4,0.2-7.9,0.4-12,0.6c0.7-3.9,1.3-7.6,2-11.4c-3.9-0.4-7.8-0.9-12-1.3c0.7-3.2,1.4-6.4,2.1-9.5l11.8,1.4c-0.5,3-1.1,6.1-1.7,9.4
		C41.6,21.9,45.6,21.6,49.6,21.4z M16.8,22.1L16,18.2c3,1.5,6.3,2.2,9.6,2.8c-0.6,3.6-1.1,7.3-1.7,11c-1.7-0.5-3.3-1-5-1.5
		L16.8,22.1z M24.3,32.5c3.6,1.3,7.3,1.3,11.2,1.1c-0.3,2.2-0.7,4.2-0.9,6.3c-0.1,0.4-0.1,0.8-0.2,1.3l-11.6,0.6
		C23.3,38.7,23.7,35.7,24.3,32.5z M46.4,40c0.3-2.3,0.7-4.6,1.1-7c3.1-0.3,6.2-0.6,9.4-0.8c1-0.1,1.9,0,2.9,0.1
		c-0.5,2.6-1,5.1-1.5,7.7l-11.9,0.6C46.3,40.4,46.4,40.2,46.4,40z M64.6,32.4c-1.4-0.1-2.9-0.2-4.3-0.3c-0.2,0-0.4,0.1-0.6,0.1
		c0.6-3.6,1.1-7.2,1.7-10.8c0-0.3,0.6-0.6,0.9-0.6c2.6,0,5.3,0,7.9,0.1c0.4,0,0.8,0.1,1.3,0.1l-2.4,11.7
		C67.7,32.7,66.2,32.6,64.6,32.4z"/>
</g>
</svg>
