<?xml version="1.0" encoding="utf-8"?>
<!-- Generator: Adobe Illustrator 26.1.0, SVG Export Plug-In . SVG Version: 6.00 Build 0)  -->
<svg version="1.1" id="Layer_1" xmlns="http://www.w3.org/2000/svg" xmlns:xlink="http://www.w3.org/1999/xlink" x="0px" y="0px"
	 viewBox="0 0 301.5 83" style="enable-background:new 0 0 301.5 83;" xml:space="preserve">
<g>
	<path style="fill:#FFFFFF;" d="M98.4,36.8c-1.3,0-2.4,1-2.4,3.6v7.8c0,2.6,1.1,3.6,2.4,3.6c1.5,0,2-1.2,2-2.7v-9.5
		C100.4,38,99.9,36.8,98.4,36.8z"/>
	<polygon style="fill:#FFFFFF;" points="145.5,36.4 141.5,44.6 146.2,44.6 145.5,36.4 	"/>
	<path style="fill:#FFFFFF;" d="M81.4,36.8c-1.7,0-2.2,1.2-2.2,2.7V49c0,1.6,0.5,2.7,2.2,2.7c1.7,0,2.2-1.1,2.2-2.7v-9.5
		C83.6,38,83.1,36.8,81.4,36.8z"/>
	<path style="fill:#FFFFFF;" d="M253.9,33.2h-3.3l-0.9,5.1h3.9c1.9,0,3.1-1.2,3.1-2.8C256.7,33.8,255.6,33.2,253.9,33.2z"/>
	<path style="fill:#FFFFFF;" d="M301.5,41.5L266.6,0l-2.8,17.3H34.9l-6.8,47.8h228.1L253.3,83L301.5,41.5z M48,55.8
		c-4.7,0-7.1-2.8-7.1-7.7v-1.7h4.5v2.1c0,2.2,1,3,2.5,3s2.5-0.8,2.5-3.1c0-2.5-1-4.1-4.2-6.9c-4-3.5-5.4-6.1-5.4-9.6
		c0-4.8,2.5-7.6,7.2-7.6c4.7,0,7,2.8,7,7.7v1.3h-4.5v-1.6c0-2.2-0.9-3-2.4-3c-1.5,0-2.4,0.8-2.4,2.9c0,2.2,1.1,3.8,4.2,6.6
		c4,3.5,5.3,6,5.3,9.8C55.3,53,52.7,55.8,48,55.8z M71.5,55.4h-4.6V39.7c0-1.9-0.5-2.9-1.9-2.9c-1.3,0-2.4,0.9-2.4,3.6v15H58V24.8
		h4.6v9.9c0.9-1.3,2.3-2,3.9-2c3.1,0,5,1.9,5,6.5V55.4z M88.2,48.6c0,4.6-2.4,7.3-6.8,7.3s-6.8-2.6-6.8-7.3v-8.7
		c0-4.6,2.4-7.3,6.8-7.3s6.8,2.6,6.8,7.3V48.6z M105,49.3c0,4.6-2,6.5-5.1,6.5c-1.7,0-3-0.7-3.9-2.1v8.4h-4.6V33.1h4l0.1,2.6
		c0.8-1.9,2.4-3.1,4.5-3.1c3.1,0,5.1,1.9,5.1,6.5V49.3z M118,55.4h-9.8l5.1-28.8H134l-1.2,7h-10.8l-0.7,4.1h9.5l-1.2,6.9h-9.6
		L118,55.4z M147.2,55.4l-0.4-4.6h-8.3l-2.2,4.6h-9.1l15.3-28.8h10.4l4.7,28.8H147.2z M177.8,37.2c4.9,1.5,8.1,4,8.1,8.9
		c0,6.5-5.6,10.1-12.9,10.1c-5,0-11.3-1.7-14.9-5.6l5.3-4.9c2.3,2.1,5.4,4.2,9.2,4.2c1.9,0,3.2-0.5,3.2-1.9c0-2.1-3.3-2.4-6.8-3.4
		c-4.7-1.5-7.6-3.8-7.6-8.6c0-6.2,5.1-10.1,12.4-10.1c4.6,0,10.3,1.5,13.9,4.9l-5.2,4.9c-1.9-1.6-4.6-3.3-7.9-3.3
		c-1.8,0-3,0.5-3,1.8C171.5,36.1,174.4,36.2,177.8,37.2z M201.9,55.4h-9.8l3.8-21.8h-7.3l1.2-7h24.4l-1.2,7h-7.3L201.9,55.4z
		 M233.5,55.4h-21.6l5.1-28.8h21.3l-1.2,7h-11.5l-0.7,3.9h9.6l-1.2,6.9h-9.7l-0.7,4.1h11.8L233.5,55.4z M252.9,55.4L251.1,45h-2.6
		l-1.8,10.4h-9.8l5-28.8h13.5c5.7,0,10.9,2.1,10.9,8.4c0,4-2,7.2-5.8,8.9l2.9,11.5v0.1H252.9z"/>
</g>
<polygon style="fill:#FFFFFF;" points="22.3,17.3 32.2,17.3 25.9,65.1 15.9,65.1 "/>
<polygon style="fill:#FFFFFF;" points="12.8,17.3 20,17.3 13.6,65.1 6.4,65.1 "/>
<polygon style="fill:#FFFFFF;" points="6.4,17.3 10.4,17.3 4.1,65.1 0,65.1 "/>
</svg>
